<?xml version="1.0" encoding="UTF-8"?>
<svg width="700pt" height="700pt" version="1.1" viewBox="0 0 700 700" xmlns="http://www.w3.org/2000/svg">
 <g>
  <path d="m524.29 278.58c-2.3086 0.03125-4.4531 0.95703-6.0508 2.5469-10.328 10.316-20.641 20.648-30.965 30.969l74.223 74.223c10.32-10.324 20.648-20.641 30.965-30.969 3.3828-3.4102 3.3828-8.9102 0-12.32l-61.898-61.898c-1.6758-1.6719-3.9609-2.5859-6.2734-2.5469zm-49.391 45.887c-41.254 41.238-82.504 82.48-123.75 123.73-1.6523 1.6406-2.582 3.875-2.582 6.2031v61.883c0.019531 4.8047 3.9102 8.6992 8.7148 8.7148h61.883c2.3203 0.019531 4.5508-0.88672 6.2031-2.5117 41.262-41.258 82.5-82.535 123.75-123.8z"/>
  <path d="m288.75 35c-53.059 0-96.25 43.191-96.25 96.25s43.191 96.25 96.25 96.25 96.25-43.191 96.25-96.25-43.191-96.25-96.25-96.25z"/>
  <path d="m253.75 245c-82.25 0-148.75 66.48-148.75 148.71v70c-0.011719 2.3203 0.90234 4.5508 2.5391 6.1953 1.6328 1.6484 3.8555 2.5781 6.1758 2.5898h217.35v-18.133c0-6.957 2.8086-13.602 7.7422-18.523 38.25-38.254 76.484-76.52 114.72-114.78-25.445-45.391-73.938-76.066-129.76-76.066z"/>
 </g>
</svg>
